# xmcd
#
# Track frame offsets:
#	150
#	15465
#	31159
#	47221
#	62334
#	82105
#	96211
#	108265
#	127017
#	140682
#	157752
#	172684
#	184097
#	201387
#
# Disc length: 3047 seconds
#
# Revision: 0
# Processed by: cddbd v1.5.2PL0 Copyright (c) Steve Scherf et al.
# Submitted via: dBpowerAMP V4.0
#
DISCID=b10be50e
DTITLE=Varios - Big Valley
DYEAR=2008
DGENRE=Country
TTITLE0=Horse with no name
TTITLE1=Ventura Higway
TTITLE2=Syster golden hair
TTITLE3=Tim man
TTITLE4=The boxer
TTITLE5=My girl
TTITLE6=Have you ever seen the rain
TTITLE7=Every breath you take
TTITLE8=Mr robinson
TTITLE9=Operator
TTITLE10=I've got a name
TTITLE11=I have to say i love you
TTITLE12=Listen to the music
TTITLE13=Sultans of swing
EXTD=
EXTT0=
EXTT1=
EXTT2=
EXTT3=
EXTT4=
EXTT5=
EXTT6=
EXTT7=
EXTT8=
EXTT9=
EXTT10=
EXTT11=
EXTT12=
EXTT13=
PLAYORDER=
